<?xml version="1.0" encoding="UTF-8" standalone="no"?>
<!-- Created with Inkscape (http://www.inkscape.org/) -->

<svg
   width="375.66431mm"
   height="130.03009mm"
   viewBox="0 0 375.66431 130.03009"
   version="1.1"
   id="svg8"
   inkscape:version="1.2.1 (9c6d41e, 2022-07-14)"
   sodipodi:docname="logo_orizontal_anm-vasile.svg"
   xmlns:inkscape="http://www.inkscape.org/namespaces/inkscape"
   xmlns:sodipodi="http://sodipodi.sourceforge.net/DTD/sodipodi-0.dtd"
   xmlns="http://www.w3.org/2000/svg"
   xmlns:svg="http://www.w3.org/2000/svg"
   xmlns:rdf="http://www.w3.org/1999/02/22-rdf-syntax-ns#"
   xmlns:cc="http://creativecommons.org/ns#"
   xmlns:dc="http://purl.org/dc/elements/1.1/">
  <defs
     id="defs2" />
  <sodipodi:namedview
     id="base"
     pagecolor="#ffffff"
     bordercolor="#666666"
     borderopacity="1.0"
     inkscape:pageopacity="0.0"
     inkscape:pageshadow="2"
     inkscape:zoom="1.1124694"
     inkscape:cx="515.51978"
     inkscape:cy="335.29011"
     inkscape:document-units="mm"
     inkscape:current-layer="layer1"
     showgrid="false"
     inkscape:window-width="1819"
     inkscape:window-height="1078"
     inkscape:window-x="0"
     inkscape:window-y="44"
     inkscape:window-maximized="0"
     inkscape:showpageshadow="2"
     inkscape:pagecheckerboard="0"
     inkscape:deskcolor="#d1d1d1" />
  <metadata
     id="metadata5">
    <rdf:RDF>
      <cc:Work
         rdf:about="">
        <dc:format>image/svg+xml</dc:format>
        <dc:type
           rdf:resource="http://purl.org/dc/dcmitype/StillImage" />
      </cc:Work>
    </rdf:RDF>
  </metadata>
  <g
     inkscape:label="Layer 1"
     inkscape:groupmode="layer"
     id="layer1"
     transform="translate(8.4293079,-4.4885101)">
    <path
       style="fill:#004f92;stroke-width:0.0383118;fill-opacity:1"
       d="m 7.7382546,133.42004 c -5.351521,-0.38992 -10.1450367,-2.90324 -13.1431084,-6.89114 -1.5977484,-2.12525 -2.5571907,-4.47185 -2.8972197,-7.08597 -0.067168,-0.51639 -0.069767,-2.37861 -0.069767,-49.996843 0,-41.019224 0.00873,-49.535666 0.051181,-49.901058 0.3505205,-3.017423 1.6064768,-5.811024 3.6687804,-8.160403 0.3882563,-0.442302 1.2620885,-1.309799 1.6819969,-1.6698032 1.7684425,-1.5161542 3.86300768,-2.6759725 6.2125874,-3.4400806 1.4422864,-0.4690468 3.1092012,-0.774534 4.7254199,-0.8660046 0.9252049,-0.052362 159.6393749,-0.052362 160.5645849,0 4.09457,0.231734 7.96119,1.7539501 10.93801,4.3060852 0.4199,0.3600042 1.29374,1.2275012 1.68199,1.6698032 2.02237,2.303888 3.19467,4.861549 3.6525,7.968844 0.0607,0.41197 0.0657,3.641771 0.0776,49.728656 0.009,35.245804 8.1e-4,49.429964 -0.029,49.786124 -0.23387,2.79812 -1.22109,5.36342 -2.94813,7.66065 -1.58835,2.11275 -3.71225,3.84334 -6.18953,5.04332 -1.93978,0.93963 -3.72159,1.46179 -6.0341,1.76831 l -0.63214,0.0838 -80.569632,0.004 c -44.313297,0.002 -80.6472118,-10e-4 -80.7420334,-0.008 z M 174.31752,122.38591 c -0.57909,-0.54674 -1.50821,-1.45923 -4.55883,-4.47728 -2.25779,-2.23368 -3.27298,-3.16425 -4.64914,-4.26164 -2.98959,-2.38396 -5.99663,-3.76972 -9.28859,-4.28052 -1.03855,-0.16115 -1.70429,-0.21348 -2.99607,-0.23551 -1.51628,-0.0259 -55.98998,0.12983 -56.394912,0.16118 -1.525111,0.11808 -2.676605,0.61787 -3.714111,1.61204 -0.490371,0.4699 -0.83502,0.89016 -1.237125,1.50854 -0.615509,0.94656 -0.998684,1.7282 -2.065927,4.21429 -0.624462,1.45466 -1.283026,2.87338 -1.333809,2.87338 -0.06136,0 -0.714947,-1.54873 -1.463206,-3.46721 -0.893358,-2.29049 -1.266648,-3.12522 -1.739308,-3.88933 -1.104371,-1.78534 -2.572355,-2.6486 -4.882259,-2.87104 -0.22125,-0.0213 -1.203947,-0.0565 -2.18377,-0.0782 -7.049414,-0.15607 -11.365532,-0.37114 -23.06368,-1.14926 -11.359432,-0.7556 -13.997354,-0.8723 -18.791918,-0.83139 -2.869428,0.0245 -4.236552,0.0873 -6.493843,0.29817 -9.893898,0.92445 -17.376788,4.23982 -24.5195258,10.86362 -0.6946949,0.64423 -2.2410338,2.18593 -2.9532796,2.94443 l -0.3597548,0.38312 1.8193424,0.0121 c 1.000638,0.007 39.5066198,0.27598 85.5688478,0.59854 46.062228,0.32256 84.223498,0.58866 84.802808,0.59134 l 1.05331,0.005 z M 92.637114,108.12283 c 10.872556,-0.3636 20.645706,-1.66144 30.017266,-3.98616 13.97107,-3.46569 25.44673,-8.970481 33.35038,-15.997937 3.44623,-3.064174 6.15633,-6.342373 8.23845,-9.965397 0.47129,-0.820074 1.33611,-2.558079 1.69681,-3.410029 1.4972,-3.536294 2.3237,-7.069503 2.55676,-10.929891 0.0558,-0.923854 0.0559,-2.990394 3.9e-4,-3.792864 -0.46913,-6.763063 -3.29183,-13.103945 -8.45147,-18.985223 -8.23031,-9.381288 -22.05641,-16.885335 -38.96211,-21.146425 -8.24821,-2.078967 -16.9358,-3.349645 -25.9179,-3.790843 -2.773561,-0.136237 -3.61101,-0.153946 -7.29839,-0.154338 -4.152202,-4.41e-4 -5.867948,0.04877 -9.34807,0.268133 -19.738237,1.24416 -37.974478,6.58167 -51.088731,14.953008 -9.051056,5.77764 -15.320956,12.748216 -18.3016164,20.346866 -1.0273793,2.619118 -1.6103954,5.128373 -1.8968788,8.164016 -0.065331,0.692263 -0.064457,3.763988 0.00129,4.539943 0.2672739,3.154299 0.7536578,5.551729 1.6749901,8.256183 1.2976641,3.809127 3.4402991,7.565717 6.2058991,10.880538 3.242797,3.886785 7.330319,7.342872 12.354625,10.446105 2.892538,1.786558 6.390355,3.587536 9.826966,5.059772 8.532772,3.655413 18.462525,6.312213 29.308496,7.841753 5.788141,0.81626 11.746481,1.2929 18.006527,1.44044 1.60755,0.0379 6.44636,0.0152 8.026314,-0.0377 z m -7.260079,-2.51696 C 76.977251,105.36436 68.816363,103.9516 61.278938,101.43417 49.852494,97.617831 40.338681,91.428755 34.132873,83.774683 28.314154,76.59803 25.674365,68.428163 26.513587,60.193799 26.9734,55.682165 28.488415,51.233538 31.001883,47.014556 33.455483,42.896069 36.958802,38.940392 41.184421,35.51722 47.19349,30.649278 54.617317,26.781468 62.940523,24.182303 69.197209,22.22847 75.840974,21.027872 82.6569,20.619348 c 1.897428,-0.113726 2.661319,-0.133301 5.2104,-0.133522 2.653564,-2.3e-4 3.401003,0.02037 5.555205,0.15307 14.641455,0.901954 28.360345,5.444311 38.689785,12.810275 3.75213,2.675662 6.98533,5.674989 9.62594,8.929663 2.94612,3.631222 5.1154,7.567824 6.418,11.646773 0.74294,2.326427 1.18751,4.64676 1.38001,7.202609 0.0608,0.807015 0.0598,3.17257 -0.002,3.946111 -0.11442,1.440055 -0.28394,2.695573 -0.52216,3.867234 -1.22649,6.032335 -4.20291,11.630529 -8.94292,16.820254 -1.04833,1.147782 -2.70967,2.745467 -4.05478,3.899413 -5.26076,4.513094 -11.91355,8.287591 -19.39666,11.004782 -7.65428,2.77936 -16.11912,4.41061 -24.842937,4.78748 -0.914755,0.0395 -2.739111,0.0795 -2.490265,0.0546 1.096897,-0.1098 1.435971,-0.15168 1.992212,-0.24609 7.037096,-1.19434 13.00401,-5.86473 15.70505,-12.292561 2.21255,-5.265376 2.03852,-11.687115 -0.45145,-16.658755 -0.87579,-1.748686 -1.86594,-3.13661 -3.24286,-4.545685 -3.23835,-3.313948 -7.564867,-5.325288 -12.623728,-5.868598 -0.772411,-0.08295 -2.954722,-0.11751 -3.777321,-0.05981 -4.590994,0.322026 -8.77332,1.846358 -12.246971,4.46366 -1.439541,1.084656 -2.814098,2.46312 -3.860354,3.871326 -1.901417,2.559206 -3.032299,5.43717 -3.433102,8.73685 -0.101484,0.835476 -0.140382,2.757734 -0.07419,3.666607 0.319876,4.392584 1.905619,8.306594 4.715457,11.638938 0.558976,0.662924 1.673596,1.777548 2.336519,2.336518 1.355187,1.1427 2.650703,1.99319 4.252606,2.79178 2.330224,1.16168 4.804313,1.87884 7.279234,2.11001 0.242322,0.0226 0.500926,0.047 0.574676,0.0541 0.152765,0.0147 -0.535951,0.0144 -1.053573,-4.9e-4 z"
       id="path2476" />
    <text
       xml:space="preserve"
       style="font-style:normal;font-variant:normal;font-weight:900;font-stretch:normal;font-size:35.2778px;line-height:1.25;font-family:'.Muna PUA';-inkscape-font-specification:'.Muna PUA, Heavy';font-variant-ligatures:normal;font-variant-caps:normal;font-variant-numeric:normal;font-feature-settings:normal;text-align:start;letter-spacing:0px;word-spacing:0px;writing-mode:lr-tb;text-anchor:start;fill:#004f92;fill-opacity:1;stroke:none;stroke-width:0.264583"
       x="196.54762"
       y="59.630951"
       id="text917"
       inkscape:export-xdpi="26.530001"
       inkscape:export-ydpi="26.530001"><tspan
         sodipodi:role="line"
         id="tspan915"
         x="196.54762"
         y="59.630951"
         style="font-style:normal;font-variant:normal;font-weight:900;font-stretch:normal;font-size:35.2778px;font-family:'.Muna PUA';-inkscape-font-specification:'.Muna PUA, Heavy';font-variant-ligatures:normal;font-variant-caps:normal;font-variant-numeric:normal;font-feature-settings:normal;text-align:start;writing-mode:lr-tb;text-anchor:start;fill:#004f92;fill-opacity:1;stroke-width:0.264583">Meteo</tspan><tspan
         sodipodi:role="line"
         x="196.54762"
         y="108.04237"
         style="font-style:normal;font-variant:normal;font-weight:900;font-stretch:normal;font-size:35.2778px;font-family:'.Muna PUA';-inkscape-font-specification:'.Muna PUA, Heavy';font-variant-ligatures:normal;font-variant-caps:normal;font-variant-numeric:normal;font-feature-settings:normal;text-align:start;writing-mode:lr-tb;text-anchor:start;fill:#004f92;fill-opacity:1;stroke-width:0.264583"
         id="tspan919">Romania</tspan></text>
    <path
       id="rect2655"
       style="fill:#fff100;fill-opacity:0.99607843;stroke:#004f92;stroke-width:1.05833;stroke-opacity:1"
       d="M 87.86714 15.963779 C 83.714942 15.963338 81.999509 16.012617 78.51939 16.231979 C 58.781173 17.476138 40.544759 22.813742 27.430519 31.185072 C 18.379472 36.962706 12.109451 43.932991 9.1287935 51.531633 C 8.1014152 54.150749 7.5182348 56.660353 7.2317517 59.695993 C 7.1664207 60.388255 7.167555 63.459813 7.233302 64.235768 C 7.5005756 67.390063 7.9868038 69.78766 8.9081351 72.492111 C 10.205798 76.301234 12.348361 80.057766 15.113958 83.372584 C 18.356752 87.259365 22.444458 90.715228 27.468759 93.818458 C 30.361294 95.605014 33.858942 97.405863 37.29555 98.878098 C 45.828313 102.53351 55.758395 105.19046 66.604355 106.72 C 72.39249 107.53626 78.350968 108.0132 84.611008 108.16074 C 86.218556 108.19863 91.056922 108.17591 92.636875 108.12301 C 103.50942 107.75941 113.28261 106.46141 122.65416 104.13669 C 136.62522 100.671 148.10094 95.16615 156.00458 88.138701 C 159.45081 85.07453 162.16124 81.796439 164.24336 78.173418 C 164.71465 77.353345 165.57919 75.61524 165.93989 74.76329 C 167.43709 71.227 168.26378 67.693592 168.49684 63.833208 C 168.55264 62.909355 168.55287 60.843144 168.49736 60.040675 C 168.02823 53.277619 165.20531 46.936542 160.04568 41.05527 C 151.81538 31.673992 137.9894 24.169843 121.08372 19.908757 C 112.83552 17.829793 104.14801 16.559489 95.165919 16.118291 C 92.392361 15.982054 91.554516 15.964171 87.86714 15.963779 z M 87.86714 20.485983 C 90.520701 20.485753 91.268156 20.506246 93.422356 20.638945 C 108.0638 21.540899 121.78307 26.08306 132.1125 33.449016 C 135.86463 36.124676 139.09766 39.124033 141.73827 42.378704 C 144.68439 46.009922 146.85388 49.946593 148.15648 54.025538 C 148.89942 56.351963 149.34374 58.672353 149.53624 61.228199 C 149.59704 62.035213 149.59598 64.400671 149.53418 65.174212 C 149.41976 66.614265 149.25046 67.870016 149.01224 69.041676 C 147.78576 75.074005 144.80913 80.672118 140.06912 85.861838 C 139.02079 87.009619 137.3597 88.607396 136.01459 89.761341 C 130.75383 94.274431 124.10094 98.048649 116.61784 100.76584 C 108.96357 103.54519 100.49872 105.17679 91.774912 105.55366 C 90.860158 105.59316 89.035779 105.63282 89.284624 105.60792 C 90.38152 105.49812 90.72051 105.45635 91.276751 105.36194 C 98.31384 104.1676 104.2807 99.497491 106.98174 93.069667 C 109.19428 87.804296 109.02005 81.38237 106.53008 76.410735 C 105.65429 74.662051 104.66431 73.273833 103.28739 71.864759 C 100.04904 68.550815 95.722724 66.539693 90.663868 65.996384 C 89.891458 65.913434 87.708919 65.878739 86.886321 65.936439 C 82.295332 66.258465 78.113171 67.78295 74.639523 70.400249 C 73.199984 71.484904 71.825549 72.863126 70.779294 74.271331 C 68.877879 76.830534 67.746714 79.708588 67.345912 83.008265 C 67.244428 83.84374 67.205823 85.766353 67.272015 86.675225 C 67.59189 91.067804 69.177654 94.98145 71.987489 98.313791 C 72.546464 98.976714 73.660858 100.09163 74.32378 100.6506 C 75.678966 101.7933 76.974333 102.64357 78.576234 103.44216 C 80.906456 104.60384 83.380458 105.32094 85.855376 105.55211 C 86.097698 105.57471 86.356785 105.59927 86.430535 105.60637 C 86.5833 105.62107 85.894474 105.62074 85.376853 105.60585 C 76.977077 105.36434 68.816516 103.95144 61.279099 101.43401 C 49.852666 97.617679 40.338754 91.428691 34.132952 83.774627 C 28.314239 76.597981 25.674558 68.427993 26.513779 60.193637 C 26.973591 55.682008 28.488412 51.233574 31.001877 47.014597 C 33.455475 42.896114 36.958586 38.940276 41.184201 35.517107 C 47.193264 30.64917 54.617298 26.781561 62.940496 24.182398 C 69.197176 22.228567 75.841203 21.027832 82.657122 20.619308 C 84.554548 20.505583 85.318061 20.486204 87.86714 20.485983 z M 35.955063 107.21402 C 33.085638 107.23852 31.718175 107.30133 29.460886 107.5122 C 19.566998 108.43664 12.084183 111.75182 4.9414522 118.37562 C 4.246758 119.01984 2.7003892 120.56164 1.9881441 121.32014 L 1.6284761 121.70306 L 3.4480033 121.71546 C 4.4486403 121.72246 42.954242 121.99132 89.016424 122.31388 C 135.07861 122.63644 173.24021 122.90237 173.81952 122.90505 L 174.87268 122.91022 L 174.31768 122.38571 C 173.73859 121.83897 172.8094 120.92651 169.75878 117.90846 C 167.50099 115.67478 166.48561 114.74461 165.10945 113.64722 C 162.11987 111.26326 159.11309 109.87715 155.82113 109.36635 C 154.78258 109.2052 154.11671 109.15273 152.82493 109.1307 C 151.30865 109.1048 96.834856 109.26058 96.429925 109.29193 C 94.904815 109.41001 93.753444 109.91007 92.715939 110.90424 C 92.225569 111.37414 91.88091 111.79429 91.478806 112.41267 C 90.863297 113.35923 90.480024 114.1408 89.412782 116.62688 C 88.788321 118.08154 88.129796 119.50061 88.079013 119.50061 C 88.017653 119.50061 87.364312 117.9516 86.616053 116.03312 C 85.722696 113.74264 85.349284 112.90806 84.876625 112.14395 C 83.772255 110.35862 82.304137 109.49525 79.994235 109.27281 C 79.772986 109.25151 78.790211 109.21648 77.810389 109.19478 C 70.760982 109.03871 66.444817 108.82362 54.746681 108.0455 C 43.38726 107.2899 40.749622 107.17311 35.955063 107.21402 z " />
  </g>
</svg>
