<svg width="50" height="50" viewBox="0 0 50 50" xmlns="http://www.w3.org/2000/svg" xmlns:xlink="http://www.w3.org/1999/xlink">
    <defs>
        <path id="7jh53cop9a" d="M0 0h50v50H0z"/>
    </defs>
    <g fill="none" fill-rule="evenodd">
        <g>
            <mask id="w72j53485b" fill="#fff">
                <use xlink:href="#7jh53cop9a"/>
            </mask>
            <path d="m31.925 26.602-1.605-.366 1.422-6.23-3.988 5.002-1.287-1.027 3.984-4.996-5.764 2.776-.714-1.484 5.757-2.772h-6.397v-1.646h6.39l-5.763-2.776.714-1.483 5.758 2.772-3.989-5.001 1.287-1.027 3.984 4.996-1.423-6.236 1.605-.366 1.422 6.23L34.74 6.73l1.605.366-1.421 6.23 3.988-5.001L40.2 9.352l-3.984 4.996 5.763-2.775.715 1.483-5.758 2.772h6.397v1.647h-6.39l5.764 2.775-.715 1.483-5.757-2.772 3.989 5.001-1.287 1.027-3.985-4.996 1.424 6.236-1.605.367-1.422-6.23-1.424 6.236zm1.408 6.731C42.538 33.333 50 25.871 50 16.667 50 7.462 42.538 0 33.333 0H0l16.667 33.333H0V50c9.205 0 16.667-7.462 16.667-16.667C16.667 42.538 24.129 50 33.333 50H50c0-9.205-7.462-16.667-16.667-16.667z" fill="#1F4751" mask="url(#w72j53485b)"/>
        </g>
        <path d="M35.035 16.667a1.702 1.702 0 1 0-3.404 0 1.702 1.702 0 0 0 3.404 0" fill="#1F4751"/>
    </g>
</svg>
