<?xml version="1.0" standalone="no"?>
<!DOCTYPE svg PUBLIC "-//W3C//DTD SVG 20010904//EN"
 "http://www.w3.org/TR/2001/REC-SVG-20010904/DTD/svg10.dtd">
<svg version="1.0" xmlns="http://www.w3.org/2000/svg"
 width="700.000000pt" height="700.000000pt" viewBox="0 0 700.000000 700.000000"
 preserveAspectRatio="xMidYMid meet">
<metadata>
Created by potrace 1.14, written by Peter Selinger 2001-2017
</metadata>
<g transform="translate(0.000000,700.000000) scale(0.100000,-0.100000)"
fill="#000000" stroke="none">
<path d="M1165 4670 c641 -1281 1165 -2331 1165 -2333 0 -2 -516 -3 -1148 -3
-631 1 -1155 -1 -1164 -3 -17 -3 -18 -67 -18 -1168 l0 -1165 127 7 c69 3 129
8 132 10 4 2 37 6 75 10 38 3 72 8 76 10 4 3 25 7 45 11 76 12 201 45 284 75
31 11 70 25 86 30 80 24 330 151 445 227 184 120 386 298 515 453 239 288 428
668 491 989 3 14 9 43 14 65 5 22 12 63 15 90 3 28 8 59 10 70 2 11 7 56 10
100 8 95 15 110 16 34 1 -63 4 -109 13 -162 3 -20 9 -54 12 -75 12 -81 68
-291 104 -393 90 -253 260 -547 422 -731 110 -124 276 -281 358 -338 19 -13
37 -27 40 -30 16 -20 214 -140 320 -195 162 -82 378 -163 505 -189 17 -4 41
-9 55 -11 103 -22 130 -27 170 -31 25 -3 72 -10 105 -14 33 -4 622 -9 1308 -9
l1249 -2 -7 120 c-3 66 -8 130 -10 143 -2 13 -6 43 -9 68 -3 25 -8 56 -11 70
-3 14 -9 48 -15 75 -15 79 -17 88 -40 166 -49 168 -144 389 -233 544 -109 189
-307 427 -477 572 -115 98 -118 100 -194 152 -129 88 -180 119 -291 174 -278
140 -552 217 -860 242 -97 8 -109 15 -29 16 32 0 68 2 79 4 11 2 58 8 105 15
348 47 744 210 1035 425 510 377 835 920 932 1555 24 159 24 501 -1 659 -57
374 -173 669 -389 991 -144 215 -389 459 -604 601 -32 21 -63 43 -69 48 -6 5
-63 38 -127 73 -195 109 -447 200 -672 244 -220 43 -177 42 -2703 43 l-2412 1
1165 -2330z m3329 1260 c15 -63 28 -124 31 -135 4 -22 122 -536 131 -575 l6
-25 9 23 c5 13 11 37 14 52 5 29 30 141 101 450 20 85 38 164 41 175 2 11 6
31 9 45 2 14 10 46 17 71 l12 45 112 -24 c62 -14 111 -28 109 -31 -2 -3 -7
-22 -10 -41 -3 -19 -46 -210 -95 -425 -49 -214 -89 -391 -88 -392 1 0 72 86
157 194 85 107 160 200 165 206 6 7 26 32 44 57 19 25 39 50 46 55 6 6 39 47
74 93 35 45 66 82 70 82 3 0 45 -31 92 -69 l87 -68 -26 -34 c-15 -19 -87 -110
-162 -204 -74 -93 -138 -174 -143 -180 -4 -5 -19 -23 -33 -40 -13 -16 -44 -55
-67 -85 -23 -30 -50 -64 -60 -75 -26 -28 -59 -75 -53 -75 2 0 71 32 153 71
369 178 424 204 523 253 58 28 107 52 110 53 6 3 16 -15 74 -132 l34 -71 -41
-21 c-23 -12 -98 -49 -167 -81 -69 -33 -201 -97 -295 -142 -93 -45 -198 -95
-232 -112 -35 -17 -63 -31 -63 -32 0 -1 195 -1 433 -1 237 1 437 0 443 -2 7
-3 10 -44 10 -116 l-1 -112 -432 -1 c-238 0 -435 -3 -438 -6 -3 -3 27 -20 67
-38 40 -19 177 -84 303 -145 127 -61 271 -131 322 -156 l92 -44 -49 -103 c-27
-56 -51 -102 -54 -102 -4 0 -14 4 -24 10 -19 11 -381 185 -477 230 -33 15
-105 50 -160 77 -55 27 -108 52 -118 56 -23 9 -43 35 263 -348 141 -176 259
-325 263 -331 6 -11 -151 -144 -170 -144 -5 0 -73 80 -150 178 -78 97 -151
188 -162 202 -11 14 -70 88 -131 165 -62 77 -113 141 -115 143 -1 2 4 -23 11
-55 27 -113 96 -419 105 -462 5 -23 14 -62 20 -85 6 -22 13 -52 16 -66 2 -14
12 -56 21 -95 28 -111 31 -105 -83 -132 -55 -13 -105 -21 -111 -19 -6 2 -14
19 -18 38 -8 41 -10 50 -35 163 -64 275 -103 451 -122 535 -24 108 -34 126
-43 78 -3 -18 -8 -42 -10 -53 -5 -21 -74 -325 -106 -460 -10 -44 -22 -96 -26
-115 -4 -19 -8 -37 -9 -40 -1 -3 -4 -18 -8 -35 -4 -16 -9 -40 -12 -53 -7 -41
-16 -62 -25 -62 -5 0 -39 7 -77 16 -37 9 -79 18 -92 20 -38 7 -42 13 -36 45 3
16 8 44 11 62 3 17 12 59 21 92 8 33 16 67 18 75 2 8 15 67 30 130 51 223 105
463 105 468 0 2 -19 -20 -42 -49 -23 -30 -45 -56 -48 -59 -3 -3 -109 -134
-234 -292 -229 -287 -229 -287 -252 -270 -125 95 -153 118 -154 124 0 6 236
307 308 393 9 11 33 40 52 65 48 62 61 78 91 114 68 83 103 129 94 124 -5 -3
-64 -32 -130 -63 -141 -68 -326 -156 -518 -249 -75 -36 -141 -66 -145 -66 -8
0 -84 148 -95 185 -5 16 2 24 36 39 23 11 128 61 232 112 251 121 464 223 495
238 19 8 -75 12 -417 14 -344 2 -443 5 -444 15 -1 6 -2 58 -3 114 l-1 103 445
1 445 0 -110 54 c-212 104 -571 276 -627 302 -32 14 -58 30 -58 35 0 16 92
198 100 198 4 0 93 -41 196 -91 104 -50 239 -115 299 -144 224 -106 290 -138
299 -143 5 -3 -13 21 -40 54 -27 33 -62 77 -79 98 -16 22 -39 51 -51 65 -12
14 -102 128 -202 252 l-180 227 90 72 c49 40 93 68 98 64 4 -5 61 -76 126
-159 65 -82 124 -157 131 -165 7 -8 71 -89 143 -180 72 -91 135 -169 140 -174
5 -4 0 27 -9 70 -10 44 -42 183 -70 309 -29 127 -64 277 -77 335 -34 139 -35
150 -15 150 9 1 57 11 106 23 50 13 93 21 96 18 4 -3 19 -58 33 -121z"/>
<path d="M4588 4889 c-196 -66 -211 -348 -23 -435 129 -61 281 4 324 136 62
190 -112 363 -301 299z"/>
</g>
</svg>
